<svg xmlns="http://www.w3.org/2000/svg" viewBox="0 0 512 512" role="img" aria-label="Meditrack">
  <defs>
    <linearGradient id="g" x1="0" y1="0" x2="1" y2="1">
      <stop offset="0" stop-color="#27A869"/>
      <stop offset="1" stop-color="#1A7A52"/>
    </linearGradient>
    <filter id="s" x="-20%" y="-20%" width="140%" height="140%">
      <feDropShadow dx="0" dy="10" stdDeviation="12" flood-color="#000" flood-opacity=".18"/>
    </filter>
  </defs>
  <rect x="36" y="36" width="440" height="440" rx="110" fill="url(#g)" filter="url(#s)"/>
  <g fill="#fff">
    <path d="M238 124c0-10 8-18 18-18h0c10 0 18 8 18 18v78h78c10 0 18 8 18 18h0c0 10-8 18-18 18h-78v78c0 10-8 18-18 18h0c-10 0-18-8-18-18v-78h-78c-10 0-18-8-18-18h0c0-10 8-18 18-18h78v-78z"/>
    <path opacity=".92" d="M256 428c-7 0-13-3-17-8-38-46-96-88-96-155 0-49 37-88 86-88 11 0 22 2 32 6 10-4 21-6 33-6 49 0 86 39 86 88 0 67-58 109-96 155-4 5-10 8-18 8z"/>
  </g>
</svg>
